<?xml version="1.0" encoding="utf-8"?>
<!-- Generator: Adobe Illustrator 16.0.0, SVG Export Plug-In . SVG Version: 6.00 Build 0)  -->
<!DOCTYPE svg PUBLIC "-//W3C//DTD SVG 1.1//EN" "http://www.w3.org/Graphics/SVG/1.1/DTD/svg11.dtd">
<svg version="1.1" id="Capa_1" xmlns="http://www.w3.org/2000/svg" xmlns:xlink="http://www.w3.org/1999/xlink" x="0px" y="0px"
	 width="15px" height="15px" viewBox="0 0 15 15" enable-background="new 0 0 15 15" xml:space="preserve">
<path fill="#CC9933" d="M13.995,3.735c-0.671-1.149-1.581-2.059-2.729-2.729C10.116,0.335,8.861,0,7.5,0
	C6.14,0,4.885,0.335,3.735,1.006c-1.149,0.67-2.059,1.581-2.729,2.729C0.335,4.884,0,6.139,0,7.5c0,1.361,0.335,2.615,1.006,3.765
	c0.671,1.149,1.581,2.059,2.729,2.729C4.885,14.665,6.14,15,7.5,15c1.361,0,2.616-0.335,3.765-1.006
	c1.149-0.67,2.059-1.581,2.729-2.729C14.665,10.115,15,8.861,15,7.5S14.665,4.884,13.995,3.735z M12.373,7.939l-0.889,0.889
	l-3.535,3.535c-0.117,0.117-0.264,0.176-0.439,0.176S7.188,12.48,7.07,12.363l-0.889-0.889c-0.124-0.124-0.186-0.271-0.186-0.439
	s0.062-0.316,0.186-0.439L8.027,8.75H3.125c-0.169,0-0.315-0.062-0.439-0.186C2.562,8.441,2.5,8.294,2.5,8.125v-1.25
	c0-0.169,0.062-0.316,0.186-0.439C2.81,6.311,2.956,6.25,3.125,6.25h4.902L6.182,4.404C6.064,4.287,6.006,4.14,6.006,3.965
	s0.059-0.322,0.176-0.439L7.07,2.636C7.188,2.519,7.334,2.461,7.51,2.461c0.176,0,0.322,0.058,0.44,0.175l3.535,3.536l0.889,0.889
	c0.118,0.117,0.176,0.264,0.176,0.439C12.549,7.676,12.49,7.822,12.373,7.939z"/>
</svg>
