<svg version="1.1" xmlns="http://www.w3.org/2000/svg" xmlns:xlink="http://www.w3.org/1999/xlink" >
  <symbol id="star" viewBox="0 0 50 50" >
      <g>
        <path  d="M48.856,22.73c0.983-0.958,1.33-2.364,0.906-3.671c-0.425-1.307-1.532-2.24-2.892-2.438l-12.092-1.757 c-0.515-0.075-0.96-0.398-1.19-0.865L28.182,3.043c-0.607-1.231-1.839-1.996-3.212-1.996c-1.372,0-2.604,0.765-3.211,1.996 L16.352,14c-0.23,0.467-0.676,0.79-1.191,0.865L3.069,16.622c-1.359,0.197-2.467,1.131-2.892,2.438 c-0.424,1.307-0.077,2.713,0.906,3.671l8.749,8.528c0.373,0.364,0.544,0.888,0.456,1.4L8.224,44.701 c-0.183,1.06,0.095,2.091,0.781,2.904c1.066,1.267,2.927,1.653,4.415,0.871l10.814-5.686c0.452-0.237,1.021-0.235,1.472,0 l10.815,5.686c0.526,0.277,1.087,0.417,1.666,0.417c1.057,0,2.059-0.47,2.748-1.288c0.687-0.813,0.964-1.846,0.781-2.904 l-2.065-12.042c-0.088-0.513,0.083-1.036,0.456-1.4L48.856,22.73z"/>
      </g>
  </symbol>
   <symbol id="right" viewBox="0 0 9.19 16" >
      <g>
        <path  d="M1496.5,4094.5l6.79,7-6.79,7" transform="translate(-1495.5 -4093.5)"/>
      </g>
  </symbol>
  <symbol id="facebook" viewBox="0 0 97.8 97.8" >
      <g>
        <path  d="M48.9,0C21.9,0,0,21.9,0,48.9s21.9,48.9,48.9,48.9s48.9-21.9,48.9-48.9S75.9,0,48.9,0z M67.5,24.9l-6.8,0 c-5.3,0-6.3,2.5-6.3,6.2v8.1h12.6l0,12.8H54.4v32.8H41.3V52h-11V39.3h11v-9.4c0-10.9,6.7-16.9,16.4-16.9l9.9,0L67.5,24.9L67.5,24.9z"/>
      </g>
  </symbol>
  <symbol id="google-plus" viewBox="0 0 97.8 97.8" >
      <g>
       <path class="st0" d="M50.7,33.7c0-6.8-4-17.3-11.8-17.3c-2.4,0-5.1,1.2-6.6,3.1c-1.6,2-2.1,4.5-2.1,7c0,6.3,3.7,16.7,11.7,16.7 c2.3,0,4.9-1.1,6.4-2.6C50.5,38.4,50.7,35.4,50.7,33.7z"/>
		    <path class="st0" d="M45.7,58.4c-0.7-0.1-1.2-0.1-2.2-0.1c-0.8,0-5.9,0.2-9.9,1.5c-2.1,0.7-8.1,3-8.1,9.7C25.6,76.2,32,81,42.1,81 c9,0,13.8-4.3,13.8-10.2C55.9,66,52.8,63.5,45.7,58.4z"/>
		    <path class="st0" d="M48.9,0C21.9,0,0,21.9,0,48.9s21.9,48.9,48.9,48.9s48.9-21.9,48.9-48.9S75.9,0,48.9,0z M37.5,84.9 c-13.6,0-20.2-6.5-20.2-13.5c0-3.4,1.7-8.2,7.2-11.5c5.8-3.6,13.7-4,17.9-4.3c-1.3-1.7-2.8-3.5-2.8-6.4c0-1.6,0.5-2.5,0.9-3.7 c-1,0.1-2.1,0.2-3,0.2C27.6,45.8,22,38.4,22,31c0-4.3,2-9.1,6-12.6c5.4-4.4,12.7-5.6,17.7-5.6h18.5l-6.1,3.8h-5.8 c2.2,1.8,6.7,5.5,6.7,12.7c0,7-3.9,10.3-7.9,13.4c-1.2,1.2-2.6,2.5-2.6,4.6c0,2.1,1.4,3.2,2.4,4l3.4,2.6c4.1,3.5,7.9,6.7,7.9,13.2 	C62.2,76,53.6,84.9,37.5,84.9z M78,47.7v9.5h-4.6v-9.5H64V43h9.4v-9.4H78V43h9.4v4.7H78z"/>
      </g>
  </symbol>
  <symbol id="social" viewBox="0 0 97.8 97.8" >
      <g>
        <path  d="M48.9,0C21.9,0,0,21.9,0,48.9s21.9,48.9,48.9,48.9s48.9-21.9,48.9-48.9S75.9,0,48.9,0z M73.7,54.2 c2.3,2.2,4.7,4.3,6.7,6.8c0.9,1.1,1.8,2.2,2.4,3.5c0.9,1.8,0.1,3.8-1.5,3.9l-10,0c-2.6,0.2-4.6-0.8-6.4-2.6c-1.4-1.4-2.7-2.9-4-4.4 c-0.5-0.6-1.1-1.2-1.8-1.6c-1.4-0.9-2.6-0.6-3.3,0.8c-0.8,1.5-1,3.1-1.1,4.7c-0.1,2.4-0.8,3-3.2,3.1c-5.1,0.2-9.9-0.5-14.3-3.1 c-3.9-2.3-7-5.4-9.6-9c-5.2-7-9.1-14.7-12.7-22.6c-0.8-1.8-0.2-2.7,1.8-2.8c3.3-0.1,6.5-0.1,9.8,0c1.3,0,2.2,0.8,2.7,2 c1.8,4.3,3.9,8.5,6.6,12.3c0.7,1,1.5,2,2.5,2.8c1.2,0.8,2,0.5,2.6-0.8c0.3-0.8,0.5-1.7,0.6-2.6c0.3-3,0.3-6-0.2-9 C41,33.6,40,32.4,38.1,32c-1-0.2-0.8-0.5-0.4-1.1c0.8-0.9,1.6-1.5,3.1-1.5l11.3,0c1.8,0.4,2.2,1.1,2.4,2.9l0,12.6 c0,0.7,0.3,2.8,1.6,3.2c1,0.3,1.7-0.5,2.3-1.1c2.7-2.9,4.6-6.3,6.4-9.8c0.8-1.6,1.4-3.2,2.1-4.8c0.5-1.2,1.2-1.8,2.6-1.8l10.9,0 c0.3,0,0.6,0,1,0.1c1.8,0.3,2.3,1.1,1.8,2.9c-0.9,2.8-2.6,5.2-4.3,7.5c-1.8,2.5-3.8,4.9-5.6,7.5C71.5,51,71.6,52.2,73.7,54.2z"/>
      </g>
  </symbol>
  <symbol id="tripadvisor" viewBox="0 0 97.8 97.8" >
      <g>
        <path class="st0" d="M67.2,46.1c-3.3,0-6,2.6-6,5.9c0,3.3,2.7,6,5.9,6c3.3,0,5.9-2.7,5.9-5.9C73.1,48.7,70.5,46.1,67.2,46.1z  M67.2,55c-1.7,0-3-1.3-3-3c0-1.7,1.3-3,3-3c1.7,0,3,1.4,3,3C70.2,53.7,68.8,55,67.2,55z"/>
		<path class="st0" d="M30.5,37.5c-7.9-0.1-14.8,6.5-14.6,14.9c0.1,7.8,6.6,14.5,14.8,14.4c8-0.1,14.5-6.6,14.5-14.6 C45.2,44.1,38.7,37.5,30.5,37.5z M30.7,61.1c-5.3,0.2-9.6-4-9.6-9.1c0-5.2,4.3-9.2,9.1-9.1c5,0,9.1,4,9.1,9.1	C39.4,57.1,35.4,60.9,30.7,61.1z"/>
		<path class="st0" d="M48.9,0C21.9,0,0,21.9,0,48.9s21.9,48.9,48.9,48.9s48.9-21.9,48.9-48.9S75.9,0,48.9,0z M77,67.9	c-3,1.9-6.3,2.8-9.8,2.8c-1.5,0-3-0.2-4.4-0.6c-3.5-0.9-6.5-2.7-9-5.3c-0.3-0.3-0.6-0.7-1-1.1c-1.3,2-2.6,3.9-3.9,5.9 c-1.3-2-2.6-3.9-3.9-5.8c-0.1,0-0.1,0.1-0.1,0.1c0,0-0.1,0.1-0.1,0.1c-3,3.6-6.8,5.7-11.4,6.5c-2.6,0.4-5.1,0.3-7.6-0.4 c-3.5-1-6.5-2.8-9-5.6c-2.4-2.7-3.8-5.8-4.4-9.4c-0.6-3.3,0.1-6.5,0.3-7.3c0.6-2.3,1.5-4.3,2.9-6.2c0.1-0.1,0.1-0.4,0.1-0.5 c-0.5-2-1.5-3.8-2.6-5.6c-0.3-0.4-0.6-0.8-0.9-1.3c0,0,0-0.1,0-0.1c0.1,0,0.1,0,0.2,0c3.7,0,7.4,0,11.1,0c0.2,0,0.3-0.1,0.5-0.2 c2.6-1.7,5.4-3,8.3-4c2.1-0.7,4.2-1.3,6.4-1.7c2.1-0.4,4.2-0.7,6.4-0.8c5.2-0.4,9.4,0.1,12.2,0.5c2.1,0.3,4.1,0.8,6.1,1.4 c3.5,1.1,6.7,2.6,9.8,4.5c0.2,0.1,0.5,0.2,0.8,0.2c3.6,0,7.2,0,10.8,0c0.3,0,0.6,0,0.9,0c0,0.1,0,0.1,0,0.1 c-0.2,0.3-0.3,0.5-0.5,0.8c-1.2,1.9-2.3,3.8-2.9,6c-0.1,0.2-0.1,0.4,0.1,0.7c3.2,4.6,4.2,9.7,2.9,15.2 C83.9,61.5,81.2,65.2,77,67.9z"/>
		<path class="st0" d="M30.2,46.1c-3.2,0-5.9,2.7-5.9,5.9c0,3.3,2.7,5.9,6,5.9c3.2,0,5.9-2.7,5.9-6C36.2,48.7,33.6,46.1,30.2,46.1z  M30.3,55.1c-1.7,0-3.1-1.3-3.1-3.1c0-1.7,1.3-3,3-3c1.7,0,3,1.3,3.1,3C33.4,53.7,32,55,30.3,55.1z"/>
		<path class="st0" d="M66.9,37.6c-8,0.2-14.3,6.6-14.4,14.6c0,8.1,6.6,14.8,14.7,14.7c8.1,0,14.7-6.5,14.7-14.7 	C81.9,43.8,75,37.4,66.9,37.6z M67.6,61.1c-5.3,0.2-9.5-4-9.5-9.1c0-5.2,4.3-9.2,9.1-9.1c5,0,9.1,4,9.1,9.1 	C76.3,57,72.3,60.9,67.6,61.1z"/>
		<path class="st0" d="M54.7,38.6c3.2-3,7.1-4.5,11.5-4.9c-5.2-2.3-10.7-3.3-16.4-3.4c-6.4-0.1-12.7,0.8-18.6,3.3 	c4.5,0.3,8.4,1.8,11.7,4.8c3.3,3,5.2,6.8,5.9,11.2C49.6,45.3,51.5,41.6,54.7,38.6z"/></g>
  </symbol>
  <symbol id="twitter" viewBox="0 0 97.8 97.8" >
      <g>
        <path  d="M48.9,0C21.9,0,0,21.9,0,48.9s21.9,48.9,48.9,48.9s48.9-21.9,48.9-48.9S75.9,0,48.9,0z M78.4,35.8 c0,0.6,0,1.2,0,1.7c0,20.9-15.9,42.5-42.5,42.5c-8.1,0-16-2.3-22.9-6.7c-0.1-0.1-0.2-0.3-0.1-0.4c0.1-0.2,0.2-0.3,0.4-0.2 c1.1,0.1,2.3,0.2,3.5,0.2c6.3,0,12.3-2,17.4-5.7c-6.1-0.5-11.3-4.6-13.2-10.5c0-0.1,0-0.3,0.1-0.4c0.1-0.1,0.2-0.1,0.3-0.1 c1.7,0.3,3.4,0.3,5,0.1c-6.3-1.9-10.7-7.8-10.7-14.5l0-0.2c0-0.1,0.1-0.2,0.2-0.3c0.1-0.1,0.2-0.1,0.4,0c1.6,0.9,3.4,1.5,5.3,1.7 c-3.6-2.9-5.7-7.2-5.7-11.9c0-2.7,0.7-5.3,2.1-7.6c0.1-0.1,0.2-0.2,0.3-0.2c0.1,0,0.2,0,0.3,0.1c7.4,9,18.2,14.6,29.8,15.3 c-0.2-1-0.3-2-0.3-3c0-8.4,6.8-15.2,15.2-15.2c4.1,0,8.1,1.7,10.9,4.6c3.2-0.7,6.3-1.8,9.1-3.5c0.1-0.1,0.3-0.1,0.4,0 c0.1,0.1,0.2,0.3,0.1,0.4c-1,3-2.8,5.6-5.3,7.5c2.4-0.4,4.7-1.1,6.8-2.1c0.1-0.1,0.3,0,0.4,0.1c0.1,0.1,0.1,0.3,0,0.4 C83.8,31.2,81.3,33.7,78.4,35.8z"/>
      </g>
  </symbol>
  <symbol id="search" viewBox="0 0 511.999 511.999" >
      <g>
        <path  d="M508.874,478.708L360.142,329.976c28.21-34.827,45.191-79.103,45.191-127.309c0-111.75-90.917-202.667-202.667-202.667 S0,90.917,0,202.667s90.917,202.667,202.667,202.667c48.206,0,92.482-16.982,127.309-45.191l148.732,148.732 c4.167,4.165,10.919,4.165,15.086,0l15.081-15.082C513.04,489.627,513.04,482.873,508.874,478.708z M202.667,362.667 c-88.229,0-160-71.771-160-160s71.771-160,160-160s160,71.771,160,160S290.896,362.667,202.667,362.667z"/>
      </g>
  </symbol>
</svg>
